<svg width="25" height="27" viewBox="0 0 25 27" fill="none" xmlns="http://www.w3.org/2000/svg">
                                <g clip-path="url(#clip0)">
                                    <path d="M24.5767 14.331H18.6157C18.7176 9.55831 19.9498 9.01654 21.4974 8.86191L22.0942 8.78063V3.53254L21.4063 3.57304C19.3854 3.69795 17.1512 4.09818 15.6605 6.11977C14.3539 7.89195 13.7778 10.7872 13.7778 15.2317V23.4674H24.5767V14.331Z" fill="#4338CA" />
                                    <path d="M10.7988 23.4674V14.331H4.91744C5.01934 9.55831 6.21168 9.01654 7.75927 8.86191L8.31634 8.78063V3.53254L7.66816 3.57304C5.64729 3.69795 3.39306 4.09818 1.90245 6.11977C0.595916 7.89195 -5.72205e-06 10.7872 -5.72205e-06 15.2317V23.4674H10.7988Z" fill="#4338CA" />
                                </g>
                                <defs>
                                    <clipPath id="clip0">
                                        <rect width="24.5767" height="27" fill="white" transform="translate(24.5767 27) rotate(-180)" />
                                    </clipPath>
                                </defs>
                            </svg>